<svg width="18" height="18" viewBox="0 0 18 18" fill="none" xmlns="http://www.w3.org/2000/svg">
<path d="M13.4297 17.2969H1.05469C0.860779 17.2969 0.703125 17.1392 0.703125 16.9453V1.05469C0.703125 0.860779 0.860779 0.703125 1.05469 0.703125H1.75781C1.952 0.703125 2.10938 0.545746 2.10938 0.351562C2.10938 0.157379 1.952 0 1.75781 0H1.05469C0.473099 0 0 0.473099 0 1.05469V16.9453C0 17.5269 0.473099 18 1.05469 18H13.4297C13.6237 18 13.7812 17.8426 13.7812 17.6484C13.7812 17.4543 13.6239 17.2969 13.4297 17.2969Z" fill="#2B2D42"/>
<path d="M16.9453 0H4.57031C4.37613 0 4.21875 0.157379 4.21875 0.351562C4.21875 0.545746 4.37613 0.703125 4.57031 0.703125H16.9453C17.1392 0.703125 17.2969 0.860779 17.2969 1.05469V16.9453C17.2969 17.1392 17.1392 17.2969 16.9453 17.2969H16.2422C16.048 17.2969 15.8906 17.4543 15.8906 17.6484C15.8906 17.8426 16.048 18 16.2422 18H16.9453C17.5269 18 18 17.5268 18 16.9453V1.05469C18 0.473099 17.5269 0 16.9453 0Z" fill="#2B2D42"/>
<path d="M4.33301 6.21387C5.35556 6.21387 6.1875 5.38193 6.1875 4.35938C6.1875 3.33669 5.35556 2.50488 4.33301 2.50488C3.31032 2.50488 2.47852 3.33682 2.47852 4.35938C2.47852 5.38193 3.31032 6.21387 4.33301 6.21387ZM4.33301 3.20801C4.96788 3.20801 5.48438 3.7245 5.48438 4.35938C5.48438 4.99425 4.96788 5.51074 4.33301 5.51074C3.69814 5.51074 3.18164 4.99425 3.18164 4.35938C3.18164 3.7245 3.69814 3.20801 4.33301 3.20801Z" fill="#2B2D42"/>
<path d="M12.1025 6.38965C11.3255 6.38965 10.5756 6.65991 9.97559 7.13754V6.91699C9.97559 6.72281 9.81807 6.56543 9.62402 6.56543H7.17188C6.97769 6.56543 6.82031 6.72281 6.82031 6.91699V15.1436C6.82031 15.3377 6.97769 15.4951 7.17188 15.4951H9.75586C9.94991 15.4951 10.1074 15.3377 10.1074 15.1436V10.3953C10.1074 9.80887 10.5845 9.33179 11.1709 9.33179C11.7573 9.33179 12.2344 9.80887 12.2344 10.3953V15.1436C12.2344 15.3377 12.3918 15.4951 12.5859 15.4951H15.1699C15.364 15.4951 15.5215 15.3377 15.5215 15.1436V9.80859C15.5215 7.92334 13.9877 6.38965 12.1025 6.38965ZM14.8184 14.792H12.9375V10.3953C12.9375 9.42119 12.145 8.62866 11.1709 8.62866C10.1967 8.62866 9.4043 9.42119 9.4043 10.3953V14.792H7.52344V7.26855H9.27246V8.00725C9.27246 8.15941 9.37024 8.29427 9.51498 8.34151C9.65945 8.38861 9.81821 8.33739 9.90788 8.21448C10.4207 7.51218 11.2411 7.09277 12.1025 7.09277C13.6 7.09277 14.8184 8.31102 14.8184 9.80859V14.792Z" fill="#2B2D42"/>
<path d="M3.04102 6.56543C2.84683 6.56543 2.68945 6.72281 2.68945 6.91699V15.1436C2.68945 15.3377 2.84683 15.4951 3.04102 15.4951H5.625C5.81905 15.4951 5.97656 15.3377 5.97656 15.1436V6.91699C5.97656 6.72281 5.81905 6.56543 5.625 6.56543H3.04102ZM5.27344 14.792H3.39258V7.26855H5.27344V14.792Z" fill="#2B2D42"/>
<path d="M3.1642 0.703125C3.35825 0.703125 3.51576 0.545746 3.51576 0.351562C3.51576 0.157379 3.35825 0 3.1642 0H3.16393C2.96974 0 2.8125 0.157379 2.8125 0.351562C2.8125 0.545746 2.97002 0.703125 3.1642 0.703125Z" fill="#2B2D42"/>
<path d="M14.8361 17.2969H14.8358C14.6416 17.2969 14.4844 17.4543 14.4844 17.6484C14.4844 17.8426 14.6419 18 14.8361 18C15.0303 18 15.1876 17.8426 15.1876 17.6484C15.1876 17.4543 15.0303 17.2969 14.8361 17.2969Z" fill="#2B2D42"/>
</svg>
