<svg width="112" height="46" viewBox="0 0 112 46" fill="none" xmlns="http://www.w3.org/2000/svg">
<path fill-rule="evenodd" clip-rule="evenodd" d="M19.5317 38.0084L24.2715 33.2692H19.5317V38.0084Z" fill="white"/>
<path fill-rule="evenodd" clip-rule="evenodd" d="M27.1688 16.6286L19.5317 8.99158V13.6582L20.3816 16.2326L27.1688 16.6286Z" fill="white"/>
<path fill-rule="evenodd" clip-rule="evenodd" d="M28.1288 17.9452L29.7757 24.2168C29.7441 26.715 26.1757 26.7126 26.2073 24.2168L28.0567 17.9585C27.9506 17.973 27.8426 17.9536 27.7481 17.9032C27.6536 17.8528 27.5774 17.7739 27.5304 17.6777C27.4833 17.5814 27.4678 17.4728 27.4861 17.3673C27.5043 17.2618 27.5554 17.1647 27.632 17.0898L27.5253 16.9832C27.4547 16.9828 27.3841 16.9871 27.314 16.996L20.4764 17.8568L20.2201 31.4039L23.2246 31.6469C23.3806 31.6627 23.6656 31.9284 23.5011 32.2158L19.5317 32.2069V32.4765H23.8912C24.3451 32.4765 24.5223 32.716 24.5905 32.9481L34.0404 23.4982L28.3554 17.8153C28.2904 17.8748 28.213 17.9191 28.1288 17.9452V17.9452Z" fill="white"/>
<path fill-rule="evenodd" clip-rule="evenodd" d="M29.3893 24.0856L28.0871 18.9542L26.5947 24.0856H29.3893Z" fill="white"/>
<path fill-rule="evenodd" clip-rule="evenodd" d="M0 23.5002L19.5002 43.0005L39 23.5002L19.5002 4L0 23.5002ZM19.5002 40.1565L2.84394 23.5002L19.5002 6.84395L36.1561 23.5002L19.5002 40.1565Z" fill="white"/>
<path fill-rule="evenodd" clip-rule="evenodd" d="M11.5718 16.644C10.9165 16.6825 10.5041 16.9403 10.5041 17.4563C10.5041 17.7102 10.6399 17.8682 10.8715 17.9452L9.22461 24.2168C9.25621 26.7151 12.8241 26.7126 12.793 24.2168L10.9436 17.9586C11.0617 17.9746 11.1816 17.9487 11.2825 17.8854C11.3835 17.8221 11.459 17.7254 11.496 17.6122C11.533 17.4989 11.5291 17.3763 11.4851 17.2656C11.441 17.155 11.3595 17.0633 11.2547 17.0065C11.397 16.9792 11.5429 16.9757 11.6863 16.9961L18.5239 17.8568L18.7802 31.404L15.7757 31.647C15.6197 31.6628 15.3347 31.9284 15.4992 32.2159L19.4992 32.207V13.561L18.6167 16.2326L11.5718 16.644ZM12.4058 24.0855H9.61127L10.911 18.9541L12.4058 24.0855Z" fill="white"/>
<path fill-rule="evenodd" clip-rule="evenodd" d="M14.3677 33.2691H19.4995V32.479H15.1084C14.4215 32.4785 14.3677 33.0272 14.3677 33.2691Z" fill="white"/>
<path d="M42.68 6.02H45.58L49.74 16.82L49.8 16.84L53.74 6.02H56.54V19H54.84V8.02H54.74L50.56 19H48.82L44.52 8.02H44.42V19H42.68V6.02ZM59.9066 6.02H68.8266V7.38H61.8466V11.62H68.1666V12.98H61.8466V19H59.9066V6.02ZM76.158 19.2C72.518 19.2 70.698 18.0267 70.698 15.68V9.52C70.698 7.04 72.518 5.8 76.158 5.8C77.398 5.8 78.5846 5.92667 79.718 6.18V7.62C78.438 7.3 77.2646 7.14 76.198 7.14C75.678 7.14 75.2246 7.17333 74.838 7.24C74.4513 7.29333 74.078 7.39333 73.718 7.54C72.9446 7.87333 72.558 8.52667 72.558 9.5V15.58C72.558 17.0733 73.798 17.82 76.278 17.82C77.3446 17.82 78.518 17.66 79.798 17.34V18.82C78.6646 19.0733 77.4513 19.2 76.158 19.2ZM42.68 29.02H44.62V40.64H51V42H42.68V29.02ZM53.0706 29.02H61.7906V30.38H55.0106V34.62H61.1306V35.98H55.0106V40.64H61.9906V42H53.0706V29.02ZM70.2522 42.2C69.6389 42.2 69.0922 42.1733 68.6122 42.12C68.1455 42.0667 67.6522 41.9667 67.1322 41.82C66.5455 41.66 66.0522 41.46 65.6522 41.22C65.2522 40.9667 64.9255 40.6267 64.6722 40.2C64.4055 39.7467 64.2722 39.24 64.2722 38.68V32.54C64.2722 31.7933 64.4655 31.1533 64.8522 30.62C65.2389 30.0867 65.7722 29.7 66.4522 29.46C67.1055 29.2333 67.7255 29.0733 68.3122 28.98C68.9122 28.8733 69.5589 28.82 70.2522 28.82C71.9055 28.82 73.3989 28.9267 74.7322 29.14V30.64C74.2255 30.52 73.4989 30.4133 72.5522 30.32C71.6189 30.2133 70.8655 30.16 70.2922 30.16C67.5589 30.16 66.1922 30.9467 66.1922 32.52V38.64C66.1922 39.0667 66.3189 39.44 66.5722 39.76C66.8389 40.08 67.1989 40.3133 67.6522 40.46C68.0789 40.62 68.5055 40.7333 68.9322 40.8C69.3589 40.8533 69.8389 40.88 70.3722 40.88C71.2655 40.88 72.2189 40.76 73.2322 40.52V35.98H70.1922V34.62H75.0322V41.6C73.2989 42 71.7055 42.2 70.2522 42.2ZM81.7725 29.02H84.0125L89.0525 42H87.0325L85.5525 38.06H79.9925L78.5325 42H76.6125L81.7725 29.02ZM85.0725 36.72L82.8725 30.86H82.6925L80.4925 36.72H85.0725ZM91.0394 29.02H92.9794V40.64H99.3594V42H91.0394V29.02Z" fill="white"/>
</svg>
