<svg width="250" height="288" viewBox="0 0 250 288" fill="none" xmlns="http://www.w3.org/2000/svg">
<path d="M231.77 79.9304C233.134 80.7605 234.705 81.1886 236.301 81.1655C237.898 81.1424 239.456 80.6689 240.795 79.7997C242.134 78.9304 243.201 77.7006 243.872 76.2519C244.544 74.8031 244.793 73.1942 244.59 71.6104C243.518 71.7473 242.486 72.104 241.559 72.658C240.632 73.2121 239.829 73.9516 239.2 74.8304C238.184 76.1635 237.601 77.7759 237.53 79.4503C236.822 77.931 235.663 76.6669 234.21 75.8304C233.294 75.2574 232.27 74.88 231.201 74.7216C230.132 74.5633 229.043 74.6276 228 74.9104C228.251 75.9606 228.716 76.948 229.364 77.8115C230.013 78.675 230.831 79.3961 231.77 79.9304V79.9304Z" fill="#4C5B6B"/>
<path d="M17.5702 79.9304C16.207 80.7618 14.6364 81.1909 13.0398 81.1683C11.4432 81.1457 9.88553 80.6722 8.54641 79.8024C7.20729 78.9327 6.14131 77.7021 5.4714 76.2526C4.80149 74.8032 4.55496 73.1939 4.76022 71.6104C5.83044 71.7474 6.86077 72.1042 7.78659 72.6583C8.7124 73.2124 9.51365 73.9519 10.1402 74.8304C11.1589 76.1626 11.7452 77.7749 11.8202 79.4503C12.5245 77.9317 13.6805 76.6675 15.1302 75.8304C16.0461 75.2574 17.0704 74.88 18.1391 74.7216C19.2077 74.5633 20.2975 74.6276 21.3402 74.9104C21.0921 75.9619 20.6291 76.9508 19.9803 77.8147C19.3315 78.6787 18.511 79.399 17.5702 79.9304V79.9304Z" fill="#4C5B6B"/>
<path d="M240.88 87.1597C239.865 88.4891 239.282 90.0983 239.21 91.7697C238.496 90.2543 237.338 88.9918 235.89 88.1497C234.975 87.5756 233.95 87.1983 232.881 87.0416C231.812 86.8849 230.722 86.9524 229.68 87.2397C230.248 89.3076 231.579 91.0834 233.404 92.2095C235.229 93.3356 237.413 93.7284 239.516 93.3088C241.619 92.8892 243.485 91.6884 244.739 89.9481C245.992 88.2078 246.539 86.0573 246.27 83.9297C245.198 84.0684 244.166 84.4269 243.238 84.9826C242.311 85.5384 241.508 86.2795 240.88 87.1597V87.1597Z" fill="#4C5B6B"/>
<path d="M8.45986 87.1597C9.47839 88.4882 10.0648 90.0973 10.1398 91.7697C10.8496 90.2546 12.0043 88.9919 13.4499 88.1497C14.3653 87.5756 15.3901 87.1983 16.4592 87.0416C17.5283 86.8849 18.6183 86.9524 19.6599 87.2397C19.4093 88.2877 18.9452 89.2726 18.2965 90.133C17.6478 90.9933 16.8285 91.7105 15.8898 92.2397C14.0597 93.262 11.9254 93.599 9.86934 93.1903C7.81328 92.7817 5.96998 91.6541 4.66988 90.0097C4.00451 89.1587 3.52246 88.1792 3.25398 87.1328C2.98551 86.0865 2.93644 84.9959 3.10988 83.9297C4.17545 84.0725 5.20026 84.4329 6.12062 84.9886C7.04099 85.5442 7.83721 86.2832 8.45986 87.1597V87.1597Z" fill="#4C5B6B"/>
<path d="M242.41 99.0096C241.327 100.417 240.705 102.125 240.63 103.9C239.878 102.289 238.649 100.949 237.11 100.06C236.139 99.4493 235.053 99.0455 233.919 98.8735C232.785 98.7014 231.628 98.7648 230.52 99.0596C231.097 101.258 232.504 103.148 234.446 104.33C236.387 105.513 238.712 105.896 240.93 105.4C242.03 105.229 243.086 104.841 244.035 104.259C244.984 103.677 245.809 102.913 246.46 102.01C247.167 101.107 247.679 100.068 247.964 98.9581C248.25 97.8481 248.303 96.691 248.12 95.5596C246.981 95.7083 245.886 96.0918 244.903 96.6856C243.92 97.2795 243.071 98.0708 242.41 99.0096V99.0096Z" fill="#4C5B6B"/>
<path d="M6.94014 99.0096C8.00231 100.425 8.60598 102.131 8.67012 103.9C9.42532 102.291 10.6534 100.952 12.1901 100.06C13.161 99.4493 14.2472 99.0455 15.381 98.8735C16.5148 98.7014 17.6719 98.7648 18.7801 99.0596C18.1656 101.239 16.7519 103.108 14.8209 104.291C12.8899 105.475 10.5837 105.887 8.36232 105.445C6.14097 105.003 4.16781 103.74 2.83656 101.908C1.50531 100.076 0.91383 97.8087 1.18013 95.5596C2.32723 95.7029 3.43187 96.0837 4.4236 96.6777C5.41533 97.2718 6.2724 98.0659 6.94014 99.0096V99.0096Z" fill="#4C5B6B"/>
<path d="M240.49 117.49C239.946 115.747 238.877 114.214 237.43 113.1C236.522 112.35 235.469 111.795 234.337 111.47C233.205 111.144 232.018 111.056 230.85 111.21C231.173 113.52 232.357 115.622 234.165 117.096C235.972 118.57 238.27 119.307 240.597 119.159C242.925 119.011 245.111 117.99 246.717 116.299C248.324 114.608 249.232 112.372 249.26 110.04C248.082 110.034 246.916 110.27 245.834 110.735C244.752 111.199 243.777 111.882 242.97 112.74C241.68 114.035 240.815 115.692 240.49 117.49V117.49Z" fill="#4C5B6B"/>
<path d="M8.84985 117.49C9.39418 115.747 10.4627 114.214 11.9099 113.1C12.8188 112.351 13.8718 111.797 15.0037 111.472C16.1355 111.147 17.3221 111.058 18.4899 111.21C18.1826 113.532 17.0053 115.65 15.196 117.137C13.3867 118.623 11.0804 119.368 8.74341 119.219C6.40637 119.07 4.21296 118.04 2.60657 116.336C1.00017 114.632 0.10062 112.382 0.0898438 110.04C1.26613 110.033 2.43112 110.27 3.51178 110.734C4.59244 111.199 5.56549 111.882 6.36987 112.74C7.66329 114.032 8.52892 115.69 8.84985 117.49Z" fill="#4C5B6B"/>
<path d="M242.76 126.97C241.312 128.1 240.244 129.646 239.7 131.4C239.37 129.591 238.494 127.926 237.19 126.63C236.378 125.768 235.396 125.084 234.307 124.619C233.217 124.155 232.044 123.92 230.86 123.93C230.862 126.294 231.766 128.569 233.386 130.29C235.007 132.012 237.224 133.05 239.584 133.194C241.944 133.339 244.27 132.577 246.088 131.066C247.907 129.554 249.08 127.407 249.37 125.06C248.196 124.904 247.002 124.993 245.865 125.322C244.727 125.65 243.67 126.212 242.76 126.97V126.97Z" fill="#4C5B6B"/>
<path d="M6.57996 126.97C8.03921 128.095 9.11782 129.642 9.66998 131.4C9.9997 129.591 10.8757 127.926 12.18 126.63C12.9931 125.769 13.9748 125.085 15.0638 124.621C16.1529 124.156 17.326 123.921 18.51 123.93C18.5079 126.294 17.6043 128.569 15.9833 130.29C14.3624 132.012 12.1461 133.05 9.78607 133.194C7.42603 133.338 5.09985 132.577 3.28156 131.066C1.46326 129.554 0.289703 127.407 0 125.06C1.16922 124.907 2.35747 124.997 3.48993 125.326C4.62239 125.655 5.67447 126.215 6.57996 126.97V126.97Z" fill="#4C5B6B"/>
<path d="M239.79 142.94C238.003 143.937 236.565 145.459 235.67 147.3C235.631 145.252 234.964 143.266 233.76 141.61C233.02 140.518 232.063 139.591 230.948 138.887C229.833 138.183 228.584 137.717 227.28 137.52C226.87 140.119 227.465 142.777 228.944 144.953C230.423 147.129 232.676 148.66 235.244 149.234C237.812 149.809 240.502 149.383 242.768 148.045C245.033 146.707 246.704 144.556 247.44 142.03C246.171 141.643 244.836 141.525 243.52 141.682C242.203 141.838 240.933 142.267 239.79 142.94V142.94Z" fill="#4C5B6B"/>
<path d="M9.54993 142.94C11.3399 143.933 12.7789 145.456 13.6699 147.3C13.709 145.252 14.3756 143.266 15.5799 141.61C16.3215 140.517 17.2808 139.59 18.3976 138.887C19.5145 138.183 20.7647 137.717 22.0699 137.52C22.4594 140.111 21.8522 142.754 20.3706 144.916C18.889 147.078 16.6432 148.598 14.0856 149.169C11.528 149.741 8.84877 149.323 6.58759 147.998C4.3264 146.673 2.65131 144.54 1.8999 142.03C3.16849 141.643 4.50364 141.524 5.82056 141.681C7.13748 141.837 8.40745 142.266 9.54993 142.94V142.94Z" fill="#4C5B6B"/>
<path d="M233.42 158.79C231.291 159.529 229.441 160.904 228.12 162.73C228.462 160.505 228.112 158.229 227.12 156.21C226.513 154.891 225.64 153.712 224.556 152.747C223.472 151.781 222.2 151.05 220.82 150.6C219.904 153.345 220.068 156.337 221.278 158.966C222.489 161.595 224.655 163.665 227.336 164.755C230.017 165.845 233.013 165.873 235.715 164.834C238.416 163.794 240.62 161.766 241.88 159.16C240.573 158.514 239.146 158.148 237.689 158.084C236.232 158.02 234.779 158.261 233.42 158.79V158.79Z" fill="#4C5B6B"/>
<path d="M15.93 158.79C18.0548 159.531 19.9012 160.906 21.22 162.73C20.883 160.505 21.2318 158.231 22.22 156.21C22.8287 154.892 23.7022 153.714 24.7861 152.749C25.87 151.784 27.141 151.052 28.52 150.6C29.4358 153.345 29.2719 156.337 28.0616 158.966C26.8513 161.595 24.6854 163.665 22.004 164.755C19.3225 165.845 16.3267 165.873 13.6253 164.834C10.9239 163.794 8.71945 161.766 7.45996 159.16C8.76886 158.514 10.1979 158.147 11.6561 158.084C13.1143 158.02 14.5698 158.26 15.93 158.79V158.79Z" fill="#4C5B6B"/>
<path d="M225.76 171.669C223.634 172.413 221.787 173.792 220.47 175.62C220.807 173.395 220.459 171.121 219.47 169.099C218.865 167.78 217.994 166.6 216.912 165.633C215.829 164.666 214.559 163.933 213.18 163.479C212.264 166.225 212.428 169.217 213.638 171.846C214.849 174.475 217.015 176.545 219.696 177.635C222.377 178.725 225.373 178.753 228.075 177.714C230.776 176.674 232.98 174.646 234.24 172.039C232.929 171.393 231.499 171.026 230.039 170.962C228.579 170.899 227.122 171.139 225.76 171.669Z" fill="#4C5B6B"/>
<path d="M23.5801 171.669C25.7099 172.412 27.5602 173.791 28.8801 175.62C28.5386 173.395 28.8877 171.119 29.8801 169.099C30.4851 167.78 31.3561 166.6 32.4384 165.633C33.5208 164.666 34.7912 163.933 36.1701 163.479C36.6691 164.843 36.8806 166.295 36.7911 167.744C36.7016 169.193 36.3131 170.608 35.6501 171.9C34.3511 174.409 32.1994 176.373 29.5817 177.438C26.9641 178.503 24.0523 178.6 21.3701 177.71C19.9934 177.247 18.7273 176.504 17.6517 175.529C16.576 174.553 15.7141 173.365 15.1201 172.039C16.4273 171.394 17.8546 171.028 19.3112 170.964C20.7677 170.9 22.2215 171.14 23.5801 171.669V171.669Z" fill="#4C5B6B"/>
<path d="M217.82 185.3C215.616 185.769 213.608 186.903 212.07 188.55C212.674 186.379 212.597 184.075 211.85 181.95C211.416 180.566 210.701 179.287 209.749 178.192C208.797 177.098 207.63 176.212 206.32 175.59C205.059 178.178 204.853 181.154 205.744 183.891C206.636 186.628 208.556 188.912 211.1 190.26C213.571 191.728 216.515 192.18 219.312 191.522C222.11 190.863 224.543 189.146 226.1 186.73C224.892 185.936 223.533 185.399 222.109 185.153C220.684 184.907 219.224 184.957 217.82 185.3V185.3Z" fill="#4C5B6B"/>
<path d="M31.53 185.3C33.7329 185.772 35.7391 186.906 37.28 188.55C36.6724 186.38 36.7457 184.076 37.49 181.95C37.9258 180.565 38.6428 179.286 39.5961 178.192C40.5494 177.097 41.7184 176.211 43.03 175.59C44.2476 178.195 44.4355 181.165 43.5561 183.903C42.6767 186.641 40.7949 188.945 38.2878 190.354C35.7808 191.763 32.8339 192.173 30.0377 191.501C27.2414 190.829 24.8026 189.124 23.21 186.73C24.4238 185.932 25.7893 185.393 27.2209 185.147C28.6525 184.901 30.1194 184.953 31.53 185.3V185.3Z" fill="#4C5B6B"/>
<path d="M207.75 196.93C205.511 197.149 203.392 198.05 201.68 199.51C202.523 197.422 202.705 195.125 202.2 192.93C201.924 191.506 201.355 190.154 200.531 188.959C199.707 187.765 198.644 186.754 197.41 185.99C195.848 188.442 195.283 191.397 195.829 194.252C196.376 197.107 197.993 199.645 200.35 201.346C202.707 203.047 205.625 203.783 208.506 203.403C211.388 203.022 214.015 201.555 215.85 199.3C214.738 198.365 213.444 197.672 212.049 197.264C210.655 196.856 209.191 196.742 207.75 196.93V196.93Z" fill="#4C5B6B"/>
<path d="M41.5902 196.93C43.8333 197.147 45.9557 198.048 47.6702 199.51C46.8279 197.422 46.6429 195.126 47.1402 192.93C47.419 191.506 47.9883 190.155 48.8124 188.961C49.6366 187.767 50.6979 186.756 51.9302 185.99C53.4921 188.442 54.0578 191.397 53.5112 194.252C52.9647 197.107 51.3474 199.645 48.9905 201.346C46.6337 203.047 43.7156 203.783 40.8339 203.403C37.9522 203.022 35.325 201.555 33.4902 199.3C34.6027 198.366 35.8971 197.673 37.2914 197.265C38.6857 196.857 40.1496 196.743 41.5902 196.93V196.93Z" fill="#4C5B6B"/>
<path d="M197.11 209.75C194.628 209.86 192.238 210.725 190.26 212.23C191.323 209.985 191.672 207.469 191.26 205.02C191.04 203.435 190.494 201.912 189.658 200.547C188.822 199.183 187.713 198.006 186.4 197.09C184.55 199.672 183.779 202.874 184.249 206.016C184.719 209.157 186.395 211.992 188.92 213.92C191.341 215.983 194.469 217.022 197.643 216.816C200.817 216.611 203.786 215.178 205.92 212.82C204.742 211.729 203.351 210.894 201.836 210.365C200.32 209.837 198.711 209.628 197.11 209.75V209.75Z" fill="#4C5B6B"/>
<path d="M52.2402 209.75C54.7193 209.862 57.1054 210.727 59.0801 212.23C58.0128 209.987 57.6636 207.469 58.0801 205.02C58.2981 203.434 58.8425 201.91 59.679 200.545C60.5155 199.181 61.626 198.004 62.9402 197.09C64.764 199.698 65.5296 202.902 65.0823 206.053C64.6349 209.204 63.008 212.067 60.5303 214.065C58.0527 216.063 54.909 217.045 51.7347 216.814C48.5605 216.583 45.5923 215.155 43.4302 212.82C44.6072 211.728 45.9976 210.891 47.5139 210.363C49.0301 209.834 50.6393 209.626 52.2402 209.75V209.75Z" fill="#4C5B6B"/>
<path d="M184.55 220.23C182.08 220.128 179.637 220.784 177.55 222.11C178.795 219.962 179.35 217.483 179.14 215.01C179.06 213.41 178.65 211.844 177.936 210.411C177.222 208.977 176.219 207.707 174.99 206.68C172.939 209.119 171.891 212.246 172.06 215.429C172.228 218.611 173.6 221.611 175.898 223.819C178.196 226.028 181.247 227.281 184.433 227.323C187.62 227.366 190.704 226.196 193.06 224.05C191.981 222.862 190.668 221.909 189.204 221.252C187.739 220.594 186.155 220.246 184.55 220.23V220.23Z" fill="#4C5B6B"/>
<path d="M64.79 220.23C67.2603 220.13 69.7023 220.785 71.79 222.11C70.5425 219.963 69.9841 217.484 70.1901 215.01C70.2722 213.411 70.6831 211.846 71.3972 210.412C72.1112 208.979 73.113 207.708 74.34 206.68C76.3915 209.119 77.4391 212.246 77.2705 215.429C77.1019 218.611 75.7299 221.611 73.4323 223.819C71.1346 226.028 68.0833 227.281 64.8966 227.323C61.7099 227.366 58.6261 226.196 56.27 224.05C57.3507 222.861 58.6653 221.908 60.1313 221.25C61.5974 220.593 63.1834 220.246 64.79 220.23V220.23Z" fill="#4C5B6B"/>
<path d="M168.93 230.5C166.481 230.088 163.964 230.437 161.72 231.5C163.22 229.524 164.082 227.138 164.19 224.66C164.31 223.064 164.099 221.46 163.571 219.95C163.042 218.439 162.208 217.053 161.12 215.88C158.789 218.044 157.366 221.012 157.138 224.185C156.91 227.357 157.894 230.498 159.892 232.973C161.89 235.448 164.752 237.073 167.902 237.52C171.051 237.967 174.252 237.202 176.86 235.38C175.944 234.065 174.767 232.954 173.403 232.114C172.039 231.274 170.516 230.725 168.93 230.5V230.5Z" fill="#4C5B6B"/>
<path d="M80.42 230.5C82.869 230.089 85.3852 230.438 87.63 231.5C86.1269 229.525 85.2617 227.139 85.15 224.66C85.0313 223.063 85.2437 221.459 85.7737 219.948C86.3037 218.438 87.1399 217.053 88.23 215.88C90.5743 218.042 92.0086 221.014 92.2419 224.194C92.4753 227.375 91.4902 230.525 89.4866 233.005C87.4829 235.486 84.6107 237.112 81.4525 237.553C78.2942 237.994 75.0865 237.217 72.48 235.38C73.3967 234.064 74.575 232.952 75.9412 232.112C77.3074 231.272 78.8321 230.724 80.42 230.5V230.5Z" fill="#4C5B6B"/>
<path d="M236.59 72.0599C237.202 71.0931 237.612 70.0124 237.796 68.8829C237.979 67.7533 237.932 66.5983 237.658 65.4874C237.383 64.3765 236.886 63.3327 236.198 62.4188C235.509 61.505 234.642 60.74 233.65 60.1699C233.036 61.1363 232.625 62.2171 232.441 63.3469C232.256 64.4767 232.303 65.6322 232.578 66.7435C232.852 67.8548 233.35 68.8989 234.039 69.8127C234.729 70.7264 235.597 71.4909 236.59 72.0599V72.0599Z" fill="#4C5B6B"/>
<path d="M12.7497 72.0599C12.1381 71.0939 11.7278 70.0143 11.5436 68.8859C11.3593 67.7575 11.4049 66.6035 11.6776 65.4931C11.9503 64.3827 12.4445 63.3388 13.1305 62.4241C13.8165 61.5094 14.6801 60.7427 15.6697 60.1699C16.2802 61.1377 16.6887 62.219 16.8707 63.3486C17.0527 64.4783 17.0045 65.6331 16.729 66.7437C16.4534 67.8543 15.9562 68.8977 15.2673 69.8113C14.5783 70.7248 13.7118 71.4897 12.7197 72.0599H12.7497Z" fill="#4C5B6B"/>
<path d="M213.55 87.01C204.02 46.87 208.88 29.88 208.88 29.88C208.88 29.88 151.88 17.88 124.88 0L124.69 0.110001L124.51 0C97.4299 17.93 40.5099 29.88 40.5099 29.88C40.5099 29.88 45.3598 46.88 35.8398 87.01C30.4698 109.65 30.2398 175.07 124.71 215.44C219.15 175.07 218.92 109.65 213.55 87.01ZM101.02 116.54C98.8298 124.8 89.5298 131.01 78.3698 131.01C67.2098 131.01 57.7198 124.69 55.6698 116.3H55.7898H55.6798L70.9998 66.67H74.1299L58.7698 116.3H97.9598L82.6698 66.66H85.7998L101.19 116.51L101.02 116.54ZM146.08 175.3H103.26V164.3H119.2V62.05H65.4198V56.83H119.2V49.61H130.2V56.83H183.97V62.05H130.15V164.3H146.08V175.3ZM170.98 130.99C159.81 130.99 150.51 124.78 148.33 116.52H148.2L163.6 66.67H166.72L151.38 116.3H190.57L175.24 66.64H178.36L193.67 116.3H193.55H193.67C191.67 124.69 182.24 131.01 170.98 131.01V130.99Z" fill="#2F4858"/>
<path d="M157.16 238.53C154.711 238.119 152.195 238.468 149.95 239.53C151.457 237.558 152.323 235.17 152.43 232.69C152.55 231.094 152.339 229.491 151.811 227.98C151.283 226.469 150.448 225.084 149.36 223.91C148.147 224.956 147.165 226.244 146.477 227.69C145.788 229.136 145.408 230.709 145.36 232.31C145.295 234.945 146.019 237.54 147.44 239.76C144.568 241.652 141.376 243.007 138.02 243.76C138.579 244.462 138.96 245.289 139.13 246.17C142.617 245.306 145.886 243.726 148.73 241.53C150.601 243.7 153.194 245.121 156.03 245.53C157.606 245.816 159.223 245.775 160.782 245.408C162.341 245.042 163.807 244.358 165.09 243.4C164.175 242.086 162.998 240.975 161.634 240.137C160.269 239.299 158.746 238.752 157.16 238.53V238.53Z" fill="#4C5B6B"/>
<path d="M111.12 243.66C107.835 242.911 104.71 241.583 101.89 239.74C103.314 237.52 104.042 234.926 103.98 232.29C103.928 230.689 103.546 229.117 102.858 227.672C102.169 226.226 101.19 224.939 99.9802 223.89C98.8899 225.062 98.0542 226.447 97.5258 227.958C96.9974 229.469 96.7878 231.073 96.9102 232.67C97.014 235.149 97.8762 237.536 99.3802 239.51C97.1358 238.447 94.6193 238.098 92.1702 238.51C90.5843 238.728 89.0608 239.272 87.6959 240.109C86.331 240.945 85.1543 242.055 84.2402 243.37C85.515 244.321 86.9714 245.001 88.5194 245.368C90.0674 245.734 91.6742 245.779 93.2402 245.5C96.0778 245.095 98.6718 243.673 100.54 241.5C103.366 243.684 106.614 245.258 110.08 246.12C110.263 245.24 110.616 244.404 111.12 243.66V243.66Z" fill="#4C5B6B"/>
<path d="M137.49 246.59C137.327 245.618 136.858 244.725 136.15 244.04C135.54 243.436 134.781 243.005 133.95 242.79C132.956 242.567 131.926 242.55 130.925 242.741C129.924 242.932 128.973 243.326 128.13 243.9C128.463 242.686 128.608 241.428 128.56 240.17C128.34 235.17 125.66 231.94 124.67 231.43C123.67 231.94 121.01 235.21 120.78 240.17C120.733 241.428 120.878 242.686 121.21 243.9C120.368 243.325 119.417 242.93 118.416 242.739C117.414 242.549 116.385 242.566 115.39 242.79C114.543 243.002 113.771 243.445 113.16 244.07C112.476 244.78 112.02 245.678 111.85 246.65C111.638 247.541 111.771 248.479 112.221 249.277C112.672 250.074 113.407 250.672 114.28 250.95C117.9 251.95 113.71 249.87 117.05 248.06C119.28 246.85 121.78 247.5 121.63 250.78C121.53 252.91 120.49 255.48 117.98 254.57C116.85 254.15 118.35 257.21 120.42 257.3C121.14 257.3 123.13 257.05 123.42 255.59C123.42 257.43 124.08 259.78 124.69 260.29C125.3 259.78 125.96 257.43 125.96 255.59C126.23 257.05 128.22 257.32 128.96 257.3C131.03 257.21 132.53 254.15 131.41 254.57C128.89 255.48 127.85 252.91 127.76 250.78C127.6 247.5 130.11 246.85 132.33 248.06C135.67 249.87 131.49 251.96 135.11 250.95C135.983 250.655 136.712 250.043 137.153 249.235C137.594 248.427 137.715 247.483 137.49 246.59V246.59Z" fill="#4C5B6B"/>
<path d="M58.2651 277.274H59.7771V267.578H58.2651V265.562H64.2651L67.8171 273.746L71.2491 265.562H77.1051V267.578H75.5691V277.274H77.1051V279.29H70.9371V277.274H72.4251V268.442L68.1051 278.69H66.7611L62.3691 268.442V277.274H63.8571V279.29H58.2651V277.274ZM79.2176 277.274H80.7776V267.578H79.2176V265.562H91.7216V270.146H89.5616V267.578H84.0656V271.226H86.8976V269.834H88.5776V274.658H86.9216V273.194H84.0656V277.274H85.7456V279.29H79.2176V277.274ZM107.633 275.042C107.201 276.498 106.385 277.61 105.185 278.378C104.001 279.146 102.529 279.538 100.769 279.554C99.2967 279.554 97.9847 279.258 96.8327 278.666C95.6967 278.074 94.8007 277.242 94.1447 276.17C93.5047 275.098 93.1847 273.85 93.1847 272.426C93.1847 271.018 93.4887 269.778 94.0967 268.706C94.7207 267.634 95.5847 266.802 96.6887 266.21C97.7927 265.618 99.0567 265.322 100.481 265.322C101.489 265.322 102.385 265.482 103.169 265.802C103.953 266.122 104.585 266.578 105.065 267.17V265.562H107.297V270.17L105.377 270.194C104.913 269.314 104.337 268.666 103.649 268.25C102.977 267.818 102.153 267.602 101.177 267.602C99.7687 267.602 98.6487 268.05 97.8167 268.946C96.9847 269.826 96.5687 270.97 96.5687 272.378C96.5687 273.354 96.7527 274.21 97.1207 274.946C97.5047 275.682 98.0247 276.25 98.6807 276.65C99.3527 277.05 100.113 277.25 100.961 277.25C101.985 277.25 102.849 276.986 103.553 276.458C104.273 275.93 104.785 275.13 105.089 274.058L107.633 275.042ZM117.468 277.274H119.028V267.458H117.468V265.562H123.876V267.458H122.316V277.274H126.78V273.434H129.084V279.29H117.468V277.274ZM130.71 277.274H132.27V267.578H130.71V265.562H143.334V270.05H141.198V267.578H135.582V271.25H138.462V269.81H140.118V274.682H138.486V273.194H135.582V277.25H141.294V274.61H143.454V279.29H130.71V277.274ZM160.613 271.994V272.882C160.613 275.01 159.957 276.65 158.645 277.802C157.349 278.954 155.597 279.53 153.389 279.53C151.837 279.53 150.469 279.234 149.285 278.642C148.117 278.05 147.213 277.218 146.573 276.146C145.949 275.058 145.637 273.818 145.637 272.426C145.637 271.034 145.949 269.802 146.573 268.73C147.197 267.642 148.069 266.802 149.189 266.21C150.325 265.618 151.621 265.322 153.077 265.322C154.101 265.322 154.997 265.482 155.765 265.802C156.549 266.106 157.189 266.546 157.685 267.122V265.562H159.989V270.218H157.997C157.149 268.474 155.725 267.602 153.725 267.602C152.317 267.602 151.197 268.026 150.365 268.874C149.533 269.722 149.117 270.882 149.117 272.354C149.117 273.858 149.517 275.05 150.317 275.93C151.117 276.794 152.189 277.226 153.533 277.226C154.637 277.21 155.541 276.946 156.245 276.434C156.949 275.906 157.341 275.114 157.421 274.058H154.853V271.994H160.613ZM162.409 277.274H163.945L167.521 267.578H166.105V265.562H174.577V267.578H173.161L176.809 277.274H178.273V279.29H171.793V277.274H173.425L172.417 274.274H167.929L166.921 277.274H168.433V279.29H162.409V277.274ZM171.841 272.354L170.281 267.602H170.161L168.529 272.354H171.841ZM179.929 277.274H181.489V267.458H179.929V265.562H186.337V267.458H184.777V277.274H189.241V273.434H191.545V279.29H179.929V277.274Z" fill="#2F4858"/>
</svg>
