<svg width="400" height="312" viewBox="0 0 400 312" fill="none" xmlns="http://www.w3.org/2000/svg">
<path d="M202.535 80.2087H192.079V287.706H202.535V80.2087Z" fill="#2F4858"/>
<path d="M249.567 311.045H145.762V307.404C145.762 295.241 159.302 285.38 176.003 285.38H219.327C236.008 285.38 249.567 295.241 249.567 307.404V311.045Z" fill="#2F4858"/>
<path d="M257.227 311.045H138.103V310.011C138.102 308.94 138.312 307.879 138.722 306.889C139.131 305.899 139.732 305 140.489 304.242C141.247 303.484 142.146 302.883 143.136 302.473C144.125 302.063 145.186 301.852 146.257 301.852H249.072C250.143 301.852 251.204 302.063 252.194 302.473C253.183 302.883 254.082 303.484 254.84 304.242C255.597 305 256.198 305.899 256.607 306.889C257.017 307.879 257.227 308.94 257.227 310.011V311.045Z" fill="#33658A"/>
<path d="M326.764 75.3902L71.4483 75.7048C68.2932 75.7048 65.729 73.8984 65.729 71.6631V71.5773C65.729 69.342 68.2836 67.5261 71.4483 67.5213L326.764 67.2068C329.914 67.2068 332.483 69.0131 332.483 71.2532V71.3342C332.473 73.5695 329.919 75.3854 326.764 75.3902Z" fill="#33658A"/>
<path d="M78.4856 72.1768C78.4942 67.6967 74.4511 64.0571 69.4551 64.0475C64.4591 64.0379 60.4021 67.662 60.3935 72.1421C60.3849 76.6221 64.428 80.2617 69.424 80.2713C74.42 80.2809 78.477 76.6569 78.4856 72.1768Z" fill="#33658A"/>
<path d="M69.5038 71.6918C83.8688 103.434 98.2354 135.176 112.604 166.919C116.436 175.393 120.271 183.867 124.109 192.341C125.062 194.4 122.174 196.02 121.249 193.971C106.884 162.229 92.5177 130.486 78.1495 98.7442L66.6489 73.3218C65.6957 71.2629 68.5553 69.6424 69.5085 71.6918H69.5038Z" fill="#33658A"/>
<path d="M69.5803 71.6917L26.1373 166.761L14.5366 192.141C13.5834 194.2 16.443 195.83 17.3962 193.78L60.844 98.7107C64.7077 90.2525 68.5746 81.7942 72.4447 73.336C73.3979 71.277 70.5382 69.6423 69.585 71.6917H69.5803Z" fill="#33658A"/>
<path d="M67.9311 74.6469C67.8644 110.307 67.7992 145.964 67.7357 181.617C67.7357 184.839 67.7357 188.061 67.7357 191.283C67.7146 191.504 67.7401 191.728 67.8104 191.939C67.8807 192.15 67.9944 192.344 68.144 192.508C68.2937 192.673 68.4761 192.804 68.6795 192.894C68.8829 192.984 69.1028 193.03 69.3252 193.03C69.5476 193.03 69.7675 192.984 69.9709 192.894C70.1743 192.804 70.3567 192.673 70.5063 192.508C70.656 192.344 70.7696 192.15 70.8399 191.939C70.9102 191.728 70.9357 191.504 70.9147 191.283L71.1101 84.3125C71.1101 81.0906 71.1101 77.8703 71.1101 74.6516C71.1311 74.4302 71.1057 74.2069 71.0353 73.9959C70.965 73.7849 70.8514 73.5909 70.7017 73.4264C70.5521 73.2619 70.3697 73.1304 70.1663 73.0405C69.9629 72.9505 69.743 72.9041 69.5206 72.9041C69.2982 72.9041 69.0782 72.9505 68.8748 73.0405C68.6714 73.1304 68.4891 73.2619 68.3395 73.4264C68.1898 73.5909 68.0762 73.7849 68.0059 73.9959C67.9355 74.2069 67.9101 74.4302 67.9311 74.6516V74.6469Z" fill="#33658A"/>
<path d="M337.646 72.1709C337.654 67.6909 333.61 64.052 328.614 64.0433C323.618 64.0345 319.562 67.6593 319.554 72.1394C319.546 76.6194 323.59 80.2583 328.586 80.267C333.582 80.2757 337.638 76.651 337.646 72.1709Z" fill="#33658A"/>
<path d="M328.537 71.6918C342.902 103.434 357.269 135.176 371.637 166.919C375.469 175.393 379.304 183.867 383.142 192.341C384.095 194.4 381.207 196.02 380.283 193.971C365.917 162.229 351.551 130.486 337.183 98.7442L325.682 73.3218C324.729 71.2629 327.589 69.6424 328.542 71.6918H328.537Z" fill="#33658A"/>
<path d="M328.613 71.6917L285.17 166.761L273.569 192.141C272.616 194.2 275.476 195.83 276.429 193.78C290.915 162.092 305.397 130.402 319.877 98.7107C323.741 90.2525 327.607 81.7942 331.477 73.336C332.431 71.277 329.571 69.6423 328.618 71.6917H328.613Z" fill="#33658A"/>
<path d="M326.964 74.6469C326.897 110.307 326.832 145.964 326.768 181.617C326.768 184.839 326.768 188.061 326.768 191.283C326.747 191.504 326.773 191.728 326.843 191.939C326.913 192.15 327.027 192.344 327.177 192.508C327.326 192.673 327.509 192.804 327.712 192.894C327.916 192.984 328.136 193.03 328.358 193.03C328.58 193.03 328.8 192.984 329.004 192.894C329.207 192.804 329.389 192.673 329.539 192.508C329.689 192.344 329.802 192.15 329.873 191.939C329.943 191.728 329.968 191.504 329.947 191.283C330.014 155.629 330.079 119.972 330.143 84.3125C330.143 81.0906 330.143 77.8703 330.143 74.6516C330.164 74.4302 330.138 74.2069 330.068 73.9959C329.998 73.7849 329.884 73.5909 329.734 73.4264C329.585 73.2619 329.402 73.1304 329.199 73.0405C328.996 72.9505 328.776 72.9041 328.553 72.9041C328.331 72.9041 328.111 72.9505 327.908 73.0405C327.704 73.1304 327.522 73.2619 327.372 73.4264C327.223 73.5909 327.109 73.7849 327.039 73.9959C326.968 74.2069 326.943 74.4302 326.964 74.6516V74.6469Z" fill="#33658A"/>
<path d="M208.174 72.1874C208.18 70.3586 207.721 68.5582 206.841 66.9551C205.96 65.3521 204.687 63.9988 203.141 63.0222C203.048 62.9664 202.971 62.8874 202.918 62.793C202.864 62.6987 202.836 62.5921 202.836 62.4837L202.784 5.3476C202.784 5.14743 202.784 4.90436 202.741 4.62316C202.069 -1.6395 192.732 -1.49652 192.355 4.79474C192.355 4.89959 192.355 4.99968 192.355 5.09023L192.25 62.4646C192.249 62.5729 192.221 62.6791 192.168 62.7733C192.114 62.8675 192.038 62.9466 191.945 63.0032C190.395 63.9737 189.117 65.3221 188.231 66.9219C187.345 68.5217 186.88 70.3205 186.879 72.1493C186.871 73.9783 187.327 75.7793 188.206 77.3834C189.085 78.9874 190.357 80.3418 191.903 81.3193C191.996 81.3763 192.072 81.4561 192.126 81.5512C192.179 81.6463 192.207 81.7536 192.208 81.8626V92.1479C192.208 93.4824 196.02 104.506 197.479 104.506C198.747 104.506 202.798 93.3632 202.798 91.8047V81.8817C202.799 81.7722 202.827 81.6647 202.882 81.5695C202.936 81.4744 203.014 81.3948 203.108 81.3384C204.658 80.3674 205.937 79.0182 206.823 77.4175C207.709 75.8168 208.174 74.0171 208.174 72.1874V72.1874Z" fill="#33658A"/>
<path d="M201.601 71.4345C201.705 72.0954 201.651 72.7715 201.444 73.4075C201.236 74.0435 200.881 74.6214 200.407 75.0937C199.934 75.5661 199.355 75.9196 198.718 76.1252C198.082 76.3308 197.405 76.3828 196.745 76.2768C195.86 76.1326 195.044 75.7132 194.412 75.0783C193.779 74.4434 193.363 73.6253 193.223 72.7404C193.118 72.079 193.172 71.4024 193.38 70.766C193.588 70.1295 193.943 69.5514 194.418 69.0789C194.892 68.6064 195.472 68.253 196.109 68.0478C196.746 67.8425 197.423 67.7912 198.084 67.898C198.968 68.0418 199.784 68.4612 200.416 69.0962C201.047 69.7313 201.462 70.5496 201.601 71.4345V71.4345Z" fill="#86BBD8"/>
<path d="M266.492 194.405H395.715L395.601 194.8C392.307 206.42 384.448 213.988 375.75 213.922L286.042 213.245C277.549 213.178 269.89 205.853 266.544 194.59L266.492 194.405Z" fill="#86BBD8"/>
<path d="M397.35 197.531H264.853C263.385 197.531 262.198 196.144 262.198 194.438V194.371C262.198 192.665 263.385 191.278 264.853 191.278H397.35C398.813 191.278 400.005 192.665 400.005 194.371V194.438C400.005 196.144 398.813 197.531 397.35 197.531Z" fill="#86BBD8"/>
<path d="M4.28955 193.871H133.513L133.403 194.262C130.11 205.881 122.251 213.45 113.548 213.388L23.8401 212.706C15.3469 212.644 7.69249 205.319 4.34668 194.057L4.28955 193.871Z" fill="#86BBD8"/>
<path d="M135.147 196.993H2.64975C1.18656 196.993 -0.00488281 195.611 -0.00488281 193.9V193.838C-0.00488281 192.127 1.18656 190.744 2.64975 190.744H135.147C136.615 190.744 137.802 192.127 137.802 193.838V193.9C137.802 195.611 136.615 196.993 135.147 196.993Z" fill="#86BBD8"/>
<g style="mix-blend-mode:multiply" opacity="0.08">
<path d="M132.436 197.088C132.436 197.088 127.951 210.748 115.873 213.293L38.5435 212.735C38.5435 212.735 98.2818 211.782 109.082 207.016C119.882 202.25 126.716 197.326 126.716 197.326L132.436 197.088Z" fill="#272525"/>
</g>
<g style="mix-blend-mode:multiply" opacity="0.08">
<path d="M394.891 197.722C394.891 197.722 390.401 211.386 378.329 213.926L300.999 213.369C300.999 213.369 360.732 212.416 371.537 207.649C382.342 202.883 389.171 197.96 389.171 197.96L394.891 197.722Z" fill="#272525"/>
</g>
</svg>
